<?xml version="1.0"?>
<svg xmlns="http://www.w3.org/2000/svg" xmlns:xlink="http://www.w3.org/1999/xlink" xmlns:svgjs="http://svgjs.com/svgjs" version="1.1" width="512" height="512" x="0" y="0" viewBox="0 0 512 512" style="enable-background:new 0 0 512 512" xml:space="preserve" class=""><g><path xmlns="http://www.w3.org/2000/svg" d="m15 200h118.642c-8.104 17.327-12.642 36.642-12.642 57 0 20.817 4.739 40.546 13.19 58.171l-120.01 120.009c-17.545 17.546-17.545 46.094 0 63.639 8.5 8.5 19.8 13.181 31.82 13.181s23.321-4.681 31.82-13.181l120.009-120.009c17.625 8.451 37.354 13.19 58.171 13.19 74.439 0 135-60.561 135-135 0-20.358-4.538-39.673-12.642-57h118.642c8.284 0 15-6.716 15-15v-10c0-31.171-16.877-58.46-41.962-73.255 10.487-10.809 16.962-25.531 16.962-41.745 0-33.084-26.916-60-60-60s-60 26.916-60 60c0 16.214 6.475 30.936 16.962 41.745-19.553 11.531-34.102 30.656-39.573 53.296-23.699-20.573-54.615-33.041-88.389-33.041s-64.69 12.468-88.39 33.041c-5.471-22.64-20.02-41.764-39.573-53.296 10.488-10.809 16.963-25.531 16.963-41.745 0-33.084-26.916-60-60-60-33.083 0-60 26.916-60 60 0 16.214 6.475 30.936 16.962 41.745-25.085 14.794-41.962 42.084-41.962 73.255v10c0 8.284 6.716 15 15 15zm100-140c0 16.542-13.458 30-30 30s-30-13.458-30-30 13.458-30 30-30 30 13.458 30 30zm342 0c0 16.542-13.458 30-30 30s-30-13.458-30-30 13.458-30 30-30 30 13.458 30 30zm24.775 110h-109.55c2.533-27.994 26.132-50 54.775-50s52.242 22.006 54.775 50zm-146.682 155.983c-4.391-11.232-11.176-21.486-20.062-30.092-4.882-4.727-10.244-8.796-15.966-12.175 10.471-10.806 16.935-25.516 16.935-41.716 0-33.084-26.916-60-60-60s-60 26.916-60 60c0 16.2 6.464 30.91 16.936 41.716-5.722 3.379-11.084 7.447-15.966 12.175-8.887 8.605-15.672 18.859-20.063 30.092-16.124-18.464-25.907-42.602-25.907-68.983 0-57.897 47.103-105 105-105s105 47.103 105 105c0 26.381-9.783 50.519-25.907 68.983zm-109.093-83.983c0-16.542 13.458-30 30-30s30 13.458 30 30-13.458 30-30 30-30-13.458-30-30zm30 120c-19.741 0-38.224-5.48-54.016-14.992 4.674-25.795 27.037-45.008 54.016-45.008s49.342 19.213 54.016 45.008c-15.792 9.512-34.275 14.992-54.016 14.992zm-105.429-20.784c6.267 7.829 13.384 14.947 21.213 21.213l-115.177 115.177c-2.834 2.833-6.6 4.394-10.607 4.394-4.006 0-7.773-1.561-10.606-4.394s-4.394-6.6-4.394-10.606c0-4.007 1.561-7.774 4.394-10.607zm-120.346-171.216c2.533-27.994 26.132-50 54.775-50s52.242 22.006 54.775 50z" fill="#2091f9" data-original="#000000" style=""/><path xmlns="http://www.w3.org/2000/svg" d="m342 487v10c0 8.284 6.716 15 15 15h140c8.284 0 15-6.716 15-15v-10c0-31.171-16.877-58.46-41.962-73.255 10.487-10.809 16.962-25.531 16.962-41.745 0-33.084-26.916-60-60-60s-60 26.916-60 60c0 16.214 6.475 30.936 16.962 41.745-25.085 14.794-41.962 42.084-41.962 73.255zm115-115c0 16.542-13.458 30-30 30s-30-13.458-30-30 13.458-30 30-30 30 13.458 30 30zm-84.775 110c2.533-27.994 26.132-50 54.775-50s52.242 22.006 54.775 50z" fill="#2091f9" data-original="#000000" style=""/></g></svg>
